<svg width="48" height="48" viewBox="0 0 48 48" fill="none" xmlns="http://www.w3.org/2000/svg">
<g clip-path="url(#clip0_115_1119)">
<circle cx="24" cy="24" r="24" fill="#005BBA"/>
<path d="M28 13.3337H14.6667V34.667H33.3333V18.667H28V13.3337ZM12 11.9897C12 11.259 12.596 10.667 13.332 10.667H29.3333L36 17.3337V35.991C36.0012 36.1661 35.968 36.3397 35.9021 36.502C35.8362 36.6642 35.739 36.8119 35.6161 36.9365C35.4931 37.0612 35.3468 37.1605 35.1855 37.2286C35.0242 37.2967 34.8511 37.3324 34.676 37.3337H13.324C12.9738 37.3312 12.6387 37.1911 12.391 36.9436C12.1432 36.6962 12.0028 36.3612 12 36.011V11.9897ZM22.6667 22.667V18.667H25.3333V22.667H29.3333V25.3337H25.3333V29.3337H22.6667V25.3337H18.6667V22.667H22.6667Z" fill="white"/>
</g>
<defs>
<clipPath id="clip0_115_1119">
<rect width="48" height="48" fill="white"/>
</clipPath>
</defs>
</svg>
