<svg width="72" height="72" viewBox="0 0 72 72" fill="none" xmlns="http://www.w3.org/2000/svg">
<circle cx="54" cy="23" r="16" fill="#C1D7EF"/>
<path d="M7 27C7.55228 27 8 26.5523 8 26C8 25.4477 7.55228 25 7 25C6.44772 25 6 25.4477 6 26C6 26.5523 6.44772 27 7 27Z" fill="#222A31"/>
<path d="M11 27C11.5523 27 12 26.5523 12 26C12 25.4477 11.5523 25 11 25C10.4477 25 10 25.4477 10 26C10 26.5523 10.4477 27 11 27Z" fill="#222A31"/>
<path d="M15 27C15.5523 27 16 26.5523 16 26C16 25.4477 15.5523 25 15 25C14.4477 25 14 25.4477 14 26C14 26.5523 14.4477 27 15 27Z" fill="#222A31"/>
<path d="M52.7929 34.7929C53.1834 34.4024 53.8166 34.4024 54.2071 34.7929C54.5976 35.1834 54.5976 35.8166 54.2071 36.2071L49.7071 40.7071C49.3166 41.0976 48.6834 41.0976 48.2929 40.7071L45.2929 37.7071C44.9024 37.3166 44.9024 36.6834 45.2929 36.2929C45.6834 35.9024 46.3166 35.9024 46.7071 36.2929L49 38.5858L52.7929 34.7929Z" fill="#222A31"/>
<path d="M54.2071 44.7071L49.7071 49.2071C49.3166 49.5976 48.6834 49.5976 48.2929 49.2071L45.2929 46.2071C44.9024 45.8166 44.9024 45.1834 45.2929 44.7929C45.6834 44.4024 46.3166 44.4024 46.7071 44.7929L49 47.0858L52.7929 43.2929C53.1834 42.9024 53.8166 42.9024 54.2071 43.2929C54.5976 43.6834 54.5976 44.3166 54.2071 44.7071Z" fill="#222A31"/>
<path d="M42.2071 56.7071C42.5976 56.3166 42.5976 55.6834 42.2071 55.2929C41.8166 54.9024 41.1834 54.9024 40.7929 55.2929L37 59.0858L34.7071 56.7929C34.3166 56.4024 33.6834 56.4024 33.2929 56.7929C32.9024 57.1834 32.9024 57.8166 33.2929 58.2071L36.2929 61.2071C36.6834 61.5976 37.3166 61.5976 37.7071 61.2071L42.2071 56.7071Z" fill="#222A31"/>
<path fill-rule="evenodd" clip-rule="evenodd" d="M8 34.5C7.44772 34.5 7 34.9477 7 35.5V40C7 40.5523 7.44772 41 8 41H42C42.5523 41 43 40.5523 43 40V35.5C43 34.9477 42.5523 34.5 42 34.5H8ZM9 39V36.5H41V39H9Z" fill="#222A31"/>
<path fill-rule="evenodd" clip-rule="evenodd" d="M7 45C7 44.4477 7.44772 44 8 44H42C42.5523 44 43 44.4477 43 45V49.5C43 50.0523 42.5523 50.5 42 50.5H8C7.44772 50.5 7 50.0523 7 49.5V45ZM9 46V48.5H41V46H9Z" fill="#222A31"/>
<path fill-rule="evenodd" clip-rule="evenodd" d="M8 53C7.44772 53 7 53.4477 7 54V62C7 62.5523 7.44772 63 8 63H28C28.5523 63 29 62.5523 29 62V54C29 53.4477 28.5523 53 28 53H8ZM9 61V55H27V61H9Z" fill="#222A31"/>
<path fill-rule="evenodd" clip-rule="evenodd" d="M1.5 22.5C1.5 21.9477 1.94772 21.5 2.5 21.5H58.5C59.0523 21.5 59.5 21.9477 59.5 22.5V67C59.5 67.5523 59.0523 68 58.5 68H2.5C2.23478 68 1.98043 67.8946 1.79289 67.7071C1.60536 67.5196 1.5 67.2652 1.5 67V22.5ZM3.5 23.5V29H57.5V23.5H3.5ZM57.5 31H3.5V66H57.5V31Z" fill="#222A31"/>
</svg>
