<svg width="72" height="72" viewBox="0 0 72 72" fill="none" xmlns="http://www.w3.org/2000/svg">
<circle cx="54" cy="23" r="16" fill="#C1D7EF"/>
<path fill-rule="evenodd" clip-rule="evenodd" d="M5.5 22C5.5 21.4477 5.94772 21 6.5 21H49.5C50.0523 21 50.5 21.4477 50.5 22V33H48.5V23H7.5V50H37.5V54C37.5 54.5523 37.0523 55 36.5 55H19.5C18.9477 55 18.5 54.5523 18.5 54V52H3V54.138L4.96837 56.5H37.5V58.5H4.5C4.20322 58.5 3.92177 58.3682 3.73178 58.1402L1.23178 55.1402C1.08202 54.9605 1 54.7339 1 54.5V51C1 50.4477 1.44772 50 2 50H5.5V22ZM20.5 52V53H35.5V52H20.5Z" fill="#222A31"/>
<path d="M46.5 26V33H44.5V27H11.5V46H37.5V48H10.5C9.94772 48 9.5 47.5523 9.5 47V26C9.5 25.4477 9.94772 25 10.5 25H45.5C46.0523 25 46.5 25.4477 46.5 26Z" fill="#222A31"/>
<path d="M49.0001 55L46 52H48V46H50V52H52L49.0001 55Z" fill="#222A31"/>
<path d="M43 57C43 56.4477 43.4477 56 44 56H54C54.5523 56 55 56.4477 55 57C55 57.5523 54.5523 58 54 58H44C43.4477 58 43 57.5523 43 57Z" fill="#222A31"/>
<path d="M46.5 63C45.9477 63 45.5 63.4477 45.5 64C45.5 64.5523 45.9477 65 46.5 65H50.5C51.0523 65 51.5 64.5523 51.5 64C51.5 63.4477 51.0523 63 50.5 63H46.5Z" fill="#222A31"/>
<path fill-rule="evenodd" clip-rule="evenodd" d="M40 35C39.4477 35 39 35.4477 39 36V67C39 67.5523 39.4477 68 40 68H57.5C58.0523 68 58.5 67.5523 58.5 67V36C58.5 35.4477 58.0523 35 57.5 35H40ZM41 40.5V37H56.5V40.5H41ZM41 42.5H56.5V60H41V42.5ZM41 62H56.5V66H41V62Z" fill="#222A31"/>
<path d="M28.0001 40L25 37H27V31H29V37H31L28.0001 40Z" fill="#222A31"/>
<path d="M22 41C21.4477 41 21 41.4477 21 42C21 42.5523 21.4477 43 22 43H34C34.5523 43 35 42.5523 35 42C35 41.4477 34.5523 41 34 41H22Z" fill="#222A31"/>
</svg>
