<svg width="72" height="72" viewBox="0 0 72 72" fill="none" xmlns="http://www.w3.org/2000/svg">
<circle cx="54" cy="16" r="16" fill="#C1D7EF"/>
<path fill-rule="evenodd" clip-rule="evenodd" d="M1.5 16C1.5 15.4477 1.94772 15 2.5 15H25.5H58C58.5523 15 59 15.4477 59 16V43V59.5C59 60.0523 58.5523 60.5 58 60.5H2.5C1.94772 60.5 1.5 60.0523 1.5 59.5V43V16ZM3.5 17V42H13H18.5C19.0523 42 19.5 42.4477 19.5 43C19.5 43.5523 19.0523 44 18.5 44H14V50C14 50.5523 13.5523 51 13 51C12.4477 51 12 50.5523 12 50V44H3.5V58.5H57V44H38C37.4477 44 37 43.5523 37 43C37 42.4477 37.4477 42 38 42H57V17H26.5V22C26.5 22.5523 26.0523 23 25.5 23C24.9477 23 24.5 22.5523 24.5 22V17H3.5ZM17.626 27.9468C17.9094 27.2261 18 26.7517 18 26.5C18 24.0147 15.9853 22 13.5 22C11.0147 22 9 24.0147 9 26.5C9 26.7517 9.09061 27.2261 9.37401 27.9468C9.64554 28.6372 10.0414 29.4236 10.5192 30.256C11.4368 31.8543 12.5793 33.489 13.5 34.7314C14.4207 33.489 15.5632 31.8543 16.4808 30.256C16.9586 29.4236 17.3545 28.6372 17.626 27.9468ZM14.9912 36.0777C16.9103 33.5037 20 28.975 20 26.5C20 22.9101 17.0899 20 13.5 20C9.91015 20 7 22.9101 7 26.5C7 28.975 10.0897 33.5037 12.0088 36.0777C12.762 37.0881 14.238 37.0881 14.9912 36.0777ZM16.2071 24.7929C15.8166 24.4024 15.1834 24.4024 14.7929 24.7929L13 26.5858L12.2071 25.7929C11.8166 25.4024 11.1834 25.4024 10.7929 25.7929C10.4024 26.1834 10.4024 26.8166 10.7929 27.2071L12.2929 28.7071C12.6834 29.0976 13.3166 29.0976 13.7071 28.7071L16.2071 26.2071C16.5976 25.8166 16.5976 25.1834 16.2071 24.7929ZM32.626 45.9468C32.9094 45.2261 33 44.7517 33 44.5C33 42.0147 30.9853 40 28.5 40C26.0147 40 24 42.0147 24 44.5C24 44.7517 24.0906 45.2261 24.374 45.9468C24.6455 46.6372 25.0414 47.4236 25.5192 48.256C26.4368 49.8543 27.5793 51.489 28.5 52.7314C29.4207 51.489 30.5632 49.8543 31.4808 48.256C31.9586 47.4236 32.3545 46.6372 32.626 45.9468ZM29.9912 54.0777C31.9103 51.5037 35 46.975 35 44.5C35 40.9101 32.0899 38 28.5 38C24.9101 38 22 40.9101 22 44.5C22 46.975 25.0897 51.5037 27.0088 54.0777C27.762 55.0881 29.238 55.0881 29.9912 54.0777ZM31.2071 42.7929C30.8166 42.4024 30.1834 42.4024 29.7929 42.7929L28 44.5858L27.2071 43.7929C26.8166 43.4024 26.1834 43.4024 25.7929 43.7929C25.4024 44.1834 25.4024 44.8166 25.7929 45.2071L27.2929 46.7071C27.6834 47.0976 28.3166 47.0976 28.7071 46.7071L31.2071 44.2071C31.5976 43.8166 31.5976 43.1834 31.2071 42.7929ZM48.8388 27.9482C49.1304 27.2218 49.2222 26.7474 49.2222 26.5C49.2222 24.0465 47.1898 22 44.6111 22C42.0324 22 40 24.0465 40 26.5C40 26.7474 40.0918 27.2218 40.3834 27.9482C40.6625 28.6433 41.0692 29.4352 41.5598 30.273C42.5027 31.8834 43.6746 33.5276 44.6111 34.7677C45.5476 33.5276 46.7195 31.8834 47.6624 30.273C48.153 29.4352 48.5597 28.6433 48.8388 27.9482ZM46.0927 36.124C48.0417 33.5583 51.2222 28.9899 51.2222 26.5C51.2222 22.9101 48.2623 20 44.6111 20C40.9599 20 38 22.9101 38 26.5C38 28.9899 41.1805 33.5583 43.1295 36.124C43.8836 37.1167 45.3386 37.1167 46.0927 36.124ZM47.3326 26.0644C47.7264 25.6772 47.7317 25.0441 47.3445 24.6503C46.9573 24.2564 46.3242 24.2511 45.9304 24.6383L44.1575 26.3814L43.3742 25.6113C42.9803 25.2241 42.3472 25.2294 41.96 25.6232C41.5728 26.0171 41.5782 26.6502 41.972 27.0374L43.4564 28.4969C43.8455 28.8794 44.4694 28.8794 44.8586 28.4969L47.3326 26.0644Z" fill="#222A31"/>
</svg>
