<svg width="72" height="72" viewBox="0 0 72 72" fill="none" xmlns="http://www.w3.org/2000/svg">
<circle cx="54" cy="16" r="16" fill="#C1D7EF"/>
<path fill-rule="evenodd" clip-rule="evenodd" d="M16.5 16.5C16.5 15.9477 16.9477 15.5 17.5 15.5H57.5C58.0523 15.5 58.5 15.9477 58.5 16.5V22.5V28V45C58.5 45.5523 58.0523 46 57.5 46H31.9693C31.9274 45.321 31.8432 44.6535 31.7192 44H56.5V29H18.5V31.1942C17.8456 31.0915 17.1781 31.0285 16.5 31.0077V22.5V16.5ZM18.5 17.5V21.5H56.5V17.5H18.5ZM56.5 23.5H18.5V27H56.5V23.5ZM16 35C9.37258 35 4 40.3726 4 47C4 48.2241 4.18296 49.4036 4.52234 50.5137C4.68381 51.0419 4.38656 51.6009 3.8584 51.7624C3.33025 51.9239 2.7712 51.6266 2.60973 51.0984C2.21306 49.801 2 48.4244 2 47C2 39.268 8.26801 33 16 33C19.0603 33 21.8916 33.9825 24.195 35.648L26.8429 33.0001L27.1528 40.1528L19.9999 39.8431L22.7596 37.0834C20.8343 35.7683 18.5071 35 16 35ZM28.2548 42.5368C28.7868 42.3884 29.3383 42.6994 29.4867 43.2314C29.8214 44.4315 30 45.6957 30 47C30 54.732 23.732 61 16 61C12.7223 61 9.70575 59.8725 7.32019 57.9852L4.73133 60.5741L4.42138 53.4214L11.5743 53.7311L8.74558 56.5598C10.7606 58.0916 13.2732 59 16 59C22.6274 59 28 53.6274 28 47C28 45.8791 27.8466 44.7956 27.5602 43.7686C27.4118 43.2367 27.7228 42.6851 28.2548 42.5368ZM38.5 35.5C38.5 34.9477 38.9477 34.5 39.5 34.5H53C53.5523 34.5 54 34.9477 54 35.5C54 36.0523 53.5523 36.5 53 36.5H39.5C38.9477 36.5 38.5 36.0523 38.5 35.5ZM38.5 39.5C38.5 38.9477 38.9477 38.5 39.5 38.5H47C47.5523 38.5 48 38.9477 48 39.5C48 40.0523 47.5523 40.5 47 40.5H39.5C38.9477 40.5 38.5 40.0523 38.5 39.5ZM14.16 49.216V48.304H16.688C18.1813 48.304 19.344 47.984 20.176 47.344C21.0187 46.704 21.44 45.776 21.44 44.56C21.44 43.3333 21.0187 42.4 20.176 41.76C19.344 41.12 18.1813 40.8 16.688 40.8H12.08V49.216H10.48V50.336H12.08V52H14.16V50.336H17.68V49.216H14.16ZM18.656 43.088C19.1147 43.4293 19.344 43.9253 19.344 44.576C19.344 45.2267 19.1093 45.7333 18.64 46.096C18.1813 46.448 17.5253 46.624 16.672 46.624H14.16V42.56H16.672C17.536 42.56 18.1973 42.736 18.656 43.088Z" fill="#222A31"/>
</svg>
