<svg width="48" height="48" viewBox="0 0 48 48" fill="none" xmlns="http://www.w3.org/2000/svg">
<g clip-path="url(#clip0_115_1120)">
<circle cx="24" cy="24" r="24" fill="#005BBA"/>
<path d="M11.9993 12H35.9993C36.353 12 36.6921 12.1405 36.9422 12.3905C37.1922 12.6406 37.3327 12.9797 37.3327 13.3333V34.6667C37.3327 35.0203 37.1922 35.3594 36.9422 35.6095C36.6921 35.8595 36.353 36 35.9993 36H11.9993C11.6457 36 11.3066 35.8595 11.0565 35.6095C10.8065 35.3594 10.666 35.0203 10.666 34.6667V13.3333C10.666 12.9797 10.8065 12.6406 11.0565 12.3905C11.3066 12.1405 11.6457 12 11.9993 12ZM34.666 22.6667H13.3327V33.3333H34.666V22.6667ZM34.666 20V14.6667H13.3327V20H34.666ZM26.666 28H31.9993V30.6667H26.666V28Z" fill="white"/>
</g>
<defs>
<clipPath id="clip0_115_1120">
<rect width="48" height="48" fill="white"/>
</clipPath>
</defs>
</svg>
