<svg width="32" height="32" viewBox="0 0 32 32" fill="none" xmlns="http://www.w3.org/2000/svg">
<path d="M22 10H27V12H25V25C25 25.2652 24.8946 25.5196 24.7071 25.7071C24.5196 25.8946 24.2652 26 24 26H10C9.73478 26 9.48043 25.8946 9.29289 25.7071C9.10536 25.5196 9 25.2652 9 25V12H7V10H12V7C12 6.73478 12.1054 6.48043 12.2929 6.29289C12.4804 6.10536 12.7348 6 13 6H21C21.2652 6 21.5196 6.10536 21.7071 6.29289C21.8946 6.48043 22 6.73478 22 7V10ZM23 12H11V24H23V12ZM14 15H16V21H14V15ZM18 15H20V21H18V15ZM14 8V10H20V8H14Z" fill="#969CA2"/>
</svg>
