<svg width="32" height="32" viewBox="0 0 32 32" fill="none" xmlns="http://www.w3.org/2000/svg">
<path d="M20.757 6.99961L18.757 8.99961H9V22.9996H23V13.2426L25 11.2426V23.9996C25 24.2648 24.8946 24.5192 24.7071 24.7067C24.5196 24.8943 24.2652 24.9996 24 24.9996H8C7.73478 24.9996 7.48043 24.8943 7.29289 24.7067C7.10536 24.5192 7 24.2648 7 23.9996V7.99961C7 7.73439 7.10536 7.48004 7.29289 7.2925C7.48043 7.10497 7.73478 6.99961 8 6.99961H20.757V6.99961ZM24.485 6.09961L25.9 7.51561L16.708 16.7076L15.296 16.7106L15.294 15.2936L24.485 6.09961V6.09961Z" fill="#C1D7EF"/>
</svg>
