<svg width="48" height="48" viewBox="0 0 48 48" fill="none" xmlns="http://www.w3.org/2000/svg">
<g clip-path="url(#clip0_115_1122)">
<circle cx="24" cy="24" r="24" fill="#005BBA"/>
<path d="M27.4673 18.6662H36.0007C36.7079 18.6662 37.3862 18.9472 37.8863 19.4473C38.3864 19.9474 38.6673 20.6256 38.6673 21.3329V24.1382C38.6677 24.4867 38.5997 24.8319 38.4673 25.1542L34.3407 35.1742C34.24 35.4185 34.069 35.6274 33.8494 35.7743C33.6298 35.9213 33.3715 35.9997 33.1073 35.9995H10.6673C10.3137 35.9995 9.97456 35.8591 9.72451 35.609C9.47446 35.359 9.33398 35.0198 9.33398 34.6662V21.3329C9.33398 20.9793 9.47446 20.6401 9.72451 20.3901C9.97456 20.14 10.3137 19.9995 10.6673 19.9995H15.31C15.5234 19.9996 15.7338 19.9484 15.9234 19.8503C16.1129 19.7521 16.2762 19.6099 16.3993 19.4355L23.67 9.13288C23.7619 9.00263 23.8974 8.90963 24.052 8.87073C24.2066 8.83184 24.37 8.84963 24.5127 8.92088L26.9313 10.1302C27.612 10.4704 28.1558 11.0333 28.4723 11.7253C28.7888 12.4173 28.8591 13.1968 28.6713 13.9342L27.4673 18.6662ZM17.334 22.1169V33.3329H32.214L36.0007 24.1382V21.3329H27.4673C27.0612 21.3328 26.6604 21.24 26.2956 21.0615C25.9308 20.883 25.6116 20.6235 25.3624 20.3029C25.1131 19.9822 24.9404 19.6089 24.8573 19.2113C24.7743 18.8138 24.7832 18.4025 24.8833 18.0089L26.0873 13.2782C26.125 13.1306 26.111 12.9746 26.0477 12.8361C25.9844 12.6976 25.8756 12.5849 25.7393 12.5169L24.858 12.0769L18.578 20.9729C18.2447 21.4449 17.818 21.8315 17.334 22.1169ZM14.6673 22.6662H12.0007V33.3329H14.6673V22.6662Z" fill="white"/>
</g>
<defs>
<clipPath id="clip0_115_1122">
<rect width="48" height="48" fill="white"/>
</clipPath>
</defs>
</svg>
