<svg width="112" height="39" viewBox="0 0 112 39" fill="none" xmlns="http://www.w3.org/2000/svg">
<path d="M10.2054 4.86433C10.2054 5.50317 10.0709 6.10838 9.80189 6.67998C9.56653 7.21795 9.2303 7.68867 8.7932 8.09215C8.38972 8.49563 7.88537 8.81505 7.28016 9.05041C6.70856 9.28577 6.10334 9.40346 5.4645 9.40346C4.11958 9.40346 2.9932 8.96635 2.08537 8.09215C1.17755 7.18433 0.723633 6.10838 0.723633 4.86433C0.723633 4.25911 0.841314 3.68751 1.07668 3.14954C1.31204 2.57795 1.64827 2.09041 2.08537 1.68693C2.52247 1.28345 3.02682 0.964035 3.59842 0.728674C4.17001 0.459688 4.79204 0.325195 5.4645 0.325195C6.10334 0.325195 6.70856 0.442877 7.28016 0.67824C7.88537 0.913601 8.38972 1.23302 8.7932 1.6365C9.2303 2.03998 9.56653 2.52751 9.80189 3.09911C10.0709 3.63708 10.2054 4.22548 10.2054 4.86433ZM1.32885 38V12.8835H9.60015V38H1.32885Z" fill="white"/>
<path d="M35.4681 11.5721C34.7284 10.6307 33.7533 9.89099 32.5429 9.35302C31.366 8.78143 30.2229 8.49563 29.1133 8.49563C28.5417 8.49563 27.9533 8.54606 27.3481 8.64693C26.7765 8.7478 26.2553 8.94954 25.7846 9.25215C25.3139 9.52114 24.9104 9.89099 24.5742 10.3617C24.2716 10.7988 24.1202 11.3704 24.1202 12.0765C24.1202 12.6817 24.2379 13.1861 24.4733 13.5895C24.7423 13.993 25.1121 14.3461 25.5829 14.6487C26.0872 14.9513 26.6756 15.2371 27.3481 15.5061C28.0205 15.7414 28.7771 15.9936 29.6176 16.2626C30.8281 16.6661 32.0889 17.12 33.4002 17.6243C34.7116 18.095 35.9052 18.7339 36.9811 19.5408C38.0571 20.3478 38.9481 21.3565 39.6542 22.5669C40.3602 23.7437 40.7133 25.2232 40.7133 27.0052C40.7133 29.0562 40.3266 30.8382 39.5533 32.3513C38.8136 33.8307 37.8049 35.0579 36.5272 36.033C35.2495 37.0081 33.7869 37.731 32.1394 38.2017C30.4918 38.6724 28.7939 38.9078 27.0455 38.9078C24.4901 38.9078 22.0188 38.4707 19.6316 37.5965C17.2443 36.6887 15.2605 35.411 13.6802 33.7635L19.3289 28.0139C20.2031 29.0898 21.3463 29.9977 22.7585 30.7374C24.2043 31.4435 25.6333 31.7965 27.0455 31.7965C27.6843 31.7965 28.3063 31.7293 28.9116 31.5948C29.5168 31.4603 30.0379 31.2417 30.475 30.9391C30.9458 30.6365 31.3156 30.233 31.5846 29.7287C31.8536 29.2243 31.9881 28.6191 31.9881 27.913C31.9881 27.2406 31.82 26.669 31.4837 26.1982C31.1475 25.7275 30.66 25.3072 30.0211 24.9374C29.4159 24.5339 28.6426 24.1808 27.7011 23.8782C26.7933 23.542 25.751 23.189 24.5742 22.8191C23.431 22.4493 22.3046 22.0121 21.195 21.5078C20.1191 21.0035 19.144 20.3646 18.2698 19.5913C17.4292 18.7843 16.74 17.8261 16.202 16.7165C15.6976 15.5733 15.4455 14.1948 15.4455 12.5808C15.4455 10.5971 15.8489 8.89911 16.6559 7.48693C17.4629 6.07476 18.522 4.91476 19.8333 4.00693C21.1446 3.09911 22.624 2.44346 24.2716 2.03998C25.9191 1.60288 27.5834 1.38433 29.2646 1.38433C31.282 1.38433 33.333 1.75418 35.4176 2.49389C37.5359 3.2336 39.3852 4.32635 40.9655 5.77215L35.4681 11.5721Z" fill="white"/>
<path d="M69.099 38L54.7251 14.6487H54.5738L54.7755 38H46.4034V2.29215H56.2381L70.5616 25.593H70.7129L70.5112 2.29215H78.8834V38H69.099Z" fill="white"/>
<path d="M101.531 9.65563V38H92.9062V9.65563H82.8192V2.29215H111.618V9.65563H101.531Z" fill="white"/>
</svg>
