<svg width="78" height="27" viewBox="0 0 78 27" fill="none" xmlns="http://www.w3.org/2000/svg">
<path d="M7.41706 3.14802C7.41706 3.58859 7.32431 4.00598 7.1388 4.40019C6.97648 4.7712 6.7446 5.09584 6.44315 5.3741C6.16489 5.65236 5.81706 5.87265 5.39967 6.03497C5.00547 6.19729 4.58807 6.27845 4.1475 6.27845C3.21996 6.27845 2.44315 5.977 1.81706 5.3741C1.19097 4.74801 0.87793 4.00599 0.87793 3.14802C0.87793 2.73062 0.959089 2.33642 1.12141 1.9654C1.28373 1.5712 1.51561 1.23497 1.81706 0.956709C2.11851 0.678447 2.46634 0.458157 2.86054 0.295839C3.25474 0.110332 3.68373 0.0175781 4.1475 0.0175781C4.58807 0.0175781 5.00547 0.0987383 5.39967 0.261058C5.81706 0.423376 6.16489 0.643665 6.44315 0.921926C6.7446 1.20019 6.97648 1.53642 7.1388 1.93062C7.32431 2.30164 7.41706 2.70743 7.41706 3.14802ZM1.29532 26.0002V8.67845H6.99967V26.0002H1.29532Z" fill="#222A31"/>
<path d="M24.8396 7.7741C24.3295 7.12483 23.657 6.61468 22.8222 6.24367C22.0106 5.84946 21.2222 5.65236 20.457 5.65236C20.0628 5.65236 19.657 5.68714 19.2396 5.75671C18.8454 5.82627 18.486 5.9654 18.1614 6.1741C17.8367 6.35961 17.5585 6.61468 17.3266 6.93932C17.1179 7.24077 17.0135 7.63497 17.0135 8.12193C17.0135 8.53932 17.0947 8.88714 17.257 9.1654C17.4425 9.44367 17.6976 9.68714 18.0222 9.89584C18.37 10.1045 18.7758 10.3016 19.2396 10.4871C19.7034 10.6495 20.2251 10.8234 20.8048 11.0089C21.6396 11.2871 22.5092 11.6002 23.4135 11.948C24.3179 12.2727 25.1411 12.7132 25.8831 13.2698C26.6251 13.8263 27.2396 14.5219 27.7266 15.3567C28.2135 16.1683 28.457 17.1886 28.457 18.4176C28.457 19.8321 28.1903 21.0611 27.657 22.1045C27.1469 23.1248 26.4512 23.9712 25.57 24.6437C24.6889 25.3161 23.6802 25.8147 22.544 26.1393C21.4077 26.464 20.2367 26.6263 19.0309 26.6263C17.2686 26.6263 15.5643 26.3248 13.9179 25.7219C12.2715 25.0958 10.9034 24.2147 9.81353 23.0784L13.7092 19.1132C14.3121 19.8553 15.1005 20.4813 16.0744 20.9915C17.0715 21.4784 18.057 21.7219 19.0309 21.7219C19.4715 21.7219 19.9005 21.6755 20.3179 21.5828C20.7353 21.49 21.0947 21.3393 21.3961 21.1306C21.7208 20.9219 21.9758 20.6437 22.1614 20.2958C22.3469 19.948 22.4396 19.5306 22.4396 19.0437C22.4396 18.5799 22.3237 18.1857 22.0918 17.8611C21.8599 17.5364 21.5237 17.2466 21.0831 16.9915C20.6657 16.7132 20.1324 16.4698 19.4831 16.2611C18.857 16.0292 18.1382 15.7857 17.3266 15.5306C16.5382 15.2755 15.7614 14.9741 14.9961 14.6263C14.2541 14.2784 13.5816 13.8379 12.9787 13.3045C12.399 12.748 11.9237 12.0871 11.5527 11.3219C11.2048 10.5335 11.0309 9.5828 11.0309 8.46975C11.0309 7.10164 11.3092 5.93062 11.8657 4.95671C12.4222 3.9828 13.1527 3.1828 14.057 2.55671C14.9614 1.93062 15.9816 1.47845 17.1179 1.20019C18.2541 0.898739 19.4019 0.748014 20.5614 0.748014C21.9527 0.748014 23.3671 1.00309 24.8048 1.51323C26.2657 2.02338 27.5411 2.777 28.6309 3.7741L24.8396 7.7741Z" fill="#222A31"/>
<path d="M48.0334 26.0002L38.1203 9.89584H38.016L38.1551 26.0002H32.3812V1.3741H39.1638L49.0421 17.4437H49.1464L49.0073 1.3741H54.7812V26.0002H48.0334Z" fill="#222A31"/>
<path d="M70.3999 6.45236V26.0002H64.4521V6.45236H57.4956V1.3741H77.3565V6.45236H70.3999Z" fill="#222A31"/>
</svg>
