<svg width="32" height="32" viewBox="0 0 32 32" fill="none" xmlns="http://www.w3.org/2000/svg">
<g clip-path="url(#clip0_78_4208)">
<path d="M14.667 14.667V9.33366H17.3337V14.667H22.667V17.3337H17.3337V22.667H14.667V17.3337H9.33366V14.667H14.667ZM16.0003 29.3337C8.63633 29.3337 2.66699 23.3643 2.66699 16.0003C2.66699 8.63633 8.63633 2.66699 16.0003 2.66699C23.3643 2.66699 29.3337 8.63633 29.3337 16.0003C29.3337 23.3643 23.3643 29.3337 16.0003 29.3337ZM16.0003 26.667C18.8293 26.667 21.5424 25.5432 23.5428 23.5428C25.5432 21.5424 26.667 18.8293 26.667 16.0003C26.667 13.1713 25.5432 10.4582 23.5428 8.45785C21.5424 6.45747 18.8293 5.33366 16.0003 5.33366C13.1713 5.33366 10.4582 6.45747 8.45785 8.45785C6.45747 10.4582 5.33366 13.1713 5.33366 16.0003C5.33366 18.8293 6.45747 21.5424 8.45785 23.5428C10.4582 25.5432 13.1713 26.667 16.0003 26.667Z" fill="#005BBA"/>
</g>
<defs>
<clipPath id="clip0_78_4208">
<rect width="32" height="32" fill="white"/>
</clipPath>
</defs>
</svg>
