<svg width="48" height="48" viewBox="0 0 48 48" fill="none" xmlns="http://www.w3.org/2000/svg">
<g clip-path="url(#clip0_115_1121)">
<circle cx="24" cy="24" r="24" fill="#005BBA"/>
<path d="M23.9993 25.3337C26.2087 25.3337 27.9993 27.1243 27.9993 29.3337C27.9993 30.467 27.5287 31.4883 26.7727 32.2163L24.226 34.667H27.9993V37.3337H19.9993V35.035L24.9233 30.295C25.1767 30.051 25.3327 29.711 25.3327 29.3337C25.3327 28.5977 24.7353 28.0003 23.9993 28.0003C23.2633 28.0003 22.666 28.5977 22.666 29.3337H19.9993C19.9993 27.1243 21.79 25.3337 23.9993 25.3337ZM31.9993 25.3337V30.667H34.666V25.3337H37.3327V37.3337H34.666V33.3337H29.3327V25.3337H31.9993ZM13.3327 24.0003C13.3327 27.3697 14.894 30.3737 17.3327 32.3283V35.5497C13.3473 33.2443 10.666 28.9363 10.666 24.0003H13.3327ZM23.9993 10.667C30.9127 10.667 36.598 15.9297 37.266 22.667H34.5833C33.9273 17.4057 29.4394 13.3337 23.9993 13.3337C20.714 13.3337 17.7753 14.819 15.8193 17.1537L18.666 20.0003H10.666V12.0003L13.9287 15.2617C16.3727 12.4483 19.978 10.667 23.9993 10.667Z" fill="white"/>
</g>
<defs>
<clipPath id="clip0_115_1121">
<rect width="48" height="48" fill="white"/>
</clipPath>
</defs>
</svg>
